<?xml version="1.0" encoding="UTF-8"?>
<svg width="24px" height="14px" viewBox="0 0 24 14" version="1.1" xmlns="http://www.w3.org/2000/svg" xmlns:xlink="http://www.w3.org/1999/xlink">
    <title>F982DE48-7CD4-4485-9487-C6B2D2089F33</title>
    <g id="UI-Guide-Night" stroke="none" stroke-width="1" fill="none" fill-rule="evenodd">
        <g transform="translate(-213.000000, -11975.000000)" fill="#FFFFFF" fill-rule="nonzero" id="Path-Copy-8">
            <path d="M220.421865,11975.1669 C220.620143,11975.3646 220.642174,11975.6716 220.487958,11975.8937 L220.421865,11975.9726 L214.949243,11981.4302 L236.428812,11981.4303 C236.74427,11981.4303 237,11981.6853 237,11982 C237,11982.286 236.788653,11982.5229 236.513218,11982.5635 L236.428812,11982.5697 L214.950155,11982.5697 L220.421865,11988.0274 C220.620143,11988.2252 220.642174,11988.5322 220.487958,11988.7542 L220.421865,11988.8331 C220.223587,11989.0309 219.915803,11989.0529 219.69319,11988.8991 L219.614083,11988.8331 L213.167297,11982.4029 C212.969019,11982.2051 212.946988,11981.8981 213.101204,11981.676 L213.167297,11981.5971 L219.614083,11975.1669 C219.837146,11974.9444 220.198802,11974.9444 220.421865,11975.1669 Z"></path>
        </g>
    </g>
</svg>