<?xml version="1.0" encoding="UTF-8"?>
<svg width="24px" height="14px" viewBox="0 0 24 14" version="1.1" xmlns="http://www.w3.org/2000/svg" xmlns:xlink="http://www.w3.org/1999/xlink">
    <title>646CD40F-F816-4BD2-AC14-35814660161A</title>
    <g id="UI-Guide-Night" stroke="none" stroke-width="1" fill="none" fill-rule="evenodd">
        <g transform="translate(-467.000000, -11975.000000)" fill="#FFFFFF" fill-rule="nonzero" id="Path-Copy-9">
            <path d="M474.421865,11975.1669 C474.620143,11975.3646 474.642174,11975.6716 474.487958,11975.8937 L474.421865,11975.9726 L468.949243,11981.4302 L490.428812,11981.4303 C490.74427,11981.4303 491,11981.6853 491,11982 C491,11982.286 490.788653,11982.5229 490.513218,11982.5635 L490.428812,11982.5697 L468.950155,11982.5697 L474.421865,11988.0274 C474.620143,11988.2252 474.642174,11988.5322 474.487958,11988.7542 L474.421865,11988.8331 C474.223587,11989.0309 473.915803,11989.0529 473.69319,11988.8991 L473.614083,11988.8331 L467.167297,11982.4029 C466.969019,11982.2051 466.946988,11981.8981 467.101204,11981.676 L467.167297,11981.5971 L473.614083,11975.1669 C473.837146,11974.9444 474.198802,11974.9444 474.421865,11975.1669 Z" transform="translate(479.000000, 11982.000000) scale(-1, 1) translate(-479.000000, -11982.000000) "></path>
        </g>
    </g>
</svg>